<?xml version="1.0" standalone="no"?>
<!DOCTYPE svg PUBLIC "-//W3C//DTD SVG 20010904//EN"
 "http://www.w3.org/TR/2001/REC-SVG-20010904/DTD/svg10.dtd">
<svg version="1.0" xmlns="http://www.w3.org/2000/svg"
 width="2252.000000pt" height="2252.000000pt" viewBox="0 0 2252.000000 2252.000000"
 preserveAspectRatio="xMidYMid meet">

<g transform="translate(0.000000,2252.000000) scale(0.100000,-0.100000)"
fill="#000000" stroke="none">
<path d="M10155 15973 c-42 -11 -94 -86 -101 -147 -3 -17 -8 -32 -13 -36 -9
-5 -10 -90 -1 -90 3 0 43 22 90 49 94 54 88 41 75 164 -7 68 -9 70 -50 60z"/>
<path d="M11387 15438 l6 -88 -36 -34 c-20 -19 -58 -41 -85 -50 -26 -9 -64
-27 -84 -41 -20 -14 -42 -25 -48 -25 -6 0 -25 -7 -42 -16 -16 -8 -50 -17 -75
-19 -64 -5 -63 -11 4 -25 159 -34 359 32 407 134 31 65 14 166 -38 231 -15 19
-15 14 -9 -67z"/>
<path d="M10730 15380 c0 -54 47 -156 64 -139 6 6 -32 110 -52 145 -11 18 -11
17 -12 -6z"/>
<path d="M11606 15269 c-3 -18 -4 -34 -2 -36 2 -3 7 10 11 27 4 17 5 34 2 36
-2 3 -7 -10 -11 -27z"/>
<path d="M11570 15179 c-30 -48 -104 -112 -173 -150 -72 -40 -51 -36 31 5 69
35 128 89 157 146 24 46 14 45 -15 -1z"/>
<path d="M15926 14789 c-65 -60 -124 -109 -130 -109 -6 0 -36 -20 -67 -44 -31
-24 -70 -51 -87 -60 -31 -16 -121 -89 -125 -102 -1 -4 8 -9 20 -10 16 -3 21 0
17 10 -4 10 3 13 27 10 18 -2 29 -1 26 3 -13 13 35 35 86 39 105 9 140 21 134
45 -3 11 -1 19 4 19 5 0 9 -7 9 -15 0 -8 5 -15 11 -15 6 0 8 7 5 16 -5 13 -2
15 13 11 15 -3 18 -1 14 11 -4 10 -2 13 5 8 7 -4 15 -1 18 8 3 9 14 13 30 10
28 -5 46 23 23 37 -10 6 -10 9 -1 9 18 0 54 39 57 63 2 12 11 53 19 91 9 38
15 71 13 72 -1 1 -56 -47 -121 -107z m-178 -231 c-4 -17 -20 -28 -31 -21 -4 3
0 11 10 19 22 17 24 17 21 2z"/>
<path d="M9965 14558 c5 -55 3 -98 -4 -120 -20 -61 -107 -126 -198 -147 l-38
-9 38 -1 c81 -2 198 58 238 123 32 52 19 156 -26 219 -15 21 -16 17 -10 -65z"/>
<path d="M9310 14504 c0 -40 29 -116 49 -129 14 -8 8 23 -20 104 -24 69 -29
74 -29 25z"/>
<path d="M15435 14430 c-3 -5 -1 -10 4 -10 6 0 11 5 11 10 0 6 -2 10 -4 10 -3
0 -8 -4 -11 -10z"/>
<path d="M10130 14347 c-88 -81 -143 -116 -258 -162 -74 -31 -122 -56 -122
-64 0 -12 -20 -13 -112 -8 -62 4 -124 9 -138 12 l-25 6 25 -12 c44 -20 255
-23 342 -6 134 28 242 95 300 186 42 68 36 93 -12 48z"/>
<path d="M15253 14317 c-13 -5 -23 -13 -23 -18 0 -4 -20 -15 -45 -25 -25 -9
-45 -20 -45 -24 0 -4 -21 -18 -47 -31 -25 -13 -48 -32 -51 -41 -2 -10 -8 -15
-13 -13 -4 3 -23 -4 -41 -15 -30 -19 -31 -20 -8 -17 14 1 36 9 49 16 12 7 32
10 43 8 15 -4 23 1 31 24 12 30 31 38 40 17 4 -8 8 -5 12 9 6 19 46 39 68 35
4 -1 7 3 7 8 0 6 -8 10 -17 10 -11 1 -3 9 19 20 52 28 70 60 21 37z"/>
<path d="M8550 13651 l0 -92 -37 -40 c-43 -44 -200 -119 -256 -120 -30 0 -30
-1 -9 -10 31 -12 153 6 210 31 147 65 195 192 112 298 l-20 25 0 -92z"/>
<path d="M7900 13602 c0 -38 20 -92 43 -110 14 -12 13 -6 -2 46 -10 32 -23 67
-29 78 -10 17 -11 15 -12 -14z"/>
<path d="M8757 13486 c-23 -56 -76 -119 -94 -112 -22 9 -99 -13 -181 -51 -41
-18 -78 -33 -83 -33 -18 0 -87 -39 -91 -52 -5 -14 -127 -17 -208 -5 -37 5 -41
4 -20 -5 45 -19 266 -22 350 -4 163 34 298 134 335 247 21 62 16 73 -8 15z"/>
<path d="M5869 13292 c-21 -22 -39 -44 -39 -50 0 -6 -7 -15 -16 -20 -20 -11
-31 -102 -12 -102 6 0 4 -6 -6 -13 -15 -11 -16 -18 -9 -32 6 -10 8 -27 5 -38
-5 -19 0 -18 54 13 140 79 134 72 134 145 0 81 -20 135 -50 135 -12 0 -39 -17
-61 -38z"/>
<path d="M9774 13129 c-38 -23 -85 -51 -104 -64 -19 -12 -101 -61 -182 -108
-125 -73 -427 -260 -603 -372 -62 -40 -288 -178 -375 -230 -36 -21 -148 -93
-250 -160 -102 -67 -214 -139 -250 -160 -91 -53 -155 -94 -305 -195 -71 -48
-170 -110 -219 -139 -48 -28 -140 -87 -202 -129 -63 -42 -140 -92 -170 -110
-31 -19 -53 -36 -50 -39 3 -3 18 4 35 16 16 12 76 46 133 75 110 57 269 156
413 256 17 12 77 47 135 79 58 32 177 105 265 163 88 58 178 115 201 126 22
11 67 38 100 59 79 51 91 58 144 89 25 15 69 43 99 63 29 20 86 56 125 81 40
25 101 65 136 90 36 25 91 61 123 80 32 19 67 43 77 53 11 9 23 17 28 17 5 0
47 23 93 51 46 29 96 59 111 68 84 51 170 106 218 141 30 22 89 62 130 90 41
27 80 53 85 58 6 4 38 25 73 46 54 32 71 46 59 46 -2 0 -34 -19 -73 -41z"/>
<path d="M7117 12803 c3 -40 0 -53 -21 -75 -13 -15 -36 -30 -50 -34 -14 -3
-26 -11 -26 -16 0 -6 -7 -8 -15 -4 -8 3 -15 0 -15 -7 0 -7 -7 -3 -15 7 -8 11
-15 14 -15 8 0 -7 -7 -12 -15 -12 -9 0 -25 -9 -37 -19 -11 -11 -26 -17 -34
-14 -7 2 -23 -5 -36 -17 -50 -46 -84 -71 -103 -75 -11 -2 -38 -8 -60 -13 l-40
-8 55 -20 c72 -25 243 -26 310 0 131 49 197 132 187 232 -10 96 -78 160 -70
67z"/>
<path d="M6450 12764 c0 -22 7 -60 15 -85 16 -43 51 -96 60 -88 6 7 -39 149
-58 184 l-16 30 -1 -41z"/>
<path d="M14168 12632 c-4 -12 -196 -142 -208 -142 -5 0 -10 -4 -10 -10 0 -5
-30 -10 -66 -12 l-67 -3 55 -37 c43 -30 64 -38 99 -38 50 0 127 33 177 74 35
30 42 49 15 39 -14 -6 -14 -2 4 23 20 27 27 56 24 97 -1 17 -17 24 -23 9z"/>
<path d="M7337 12599 c-3 -14 -19 -43 -35 -65 -26 -35 -33 -39 -68 -38 -49 2
-87 -14 -164 -66 -34 -23 -67 -43 -73 -44 -7 -1 -30 -10 -52 -20 -67 -29 -117
-38 -195 -38 -55 0 -67 -2 -45 -8 53 -14 236 -11 305 6 96 22 202 78 254 134
49 53 89 123 84 148 -3 12 -6 9 -11 -9z"/>
<path d="M10158 12010 c36 -32 54 -40 113 -50 70 -12 105 -9 52 5 -15 3 -41
17 -58 29 -28 22 -116 56 -139 56 -6 -1 8 -18 32 -40z"/>
<path d="M13390 11960 c-19 -11 -55 -22 -80 -26 -65 -9 -85 -23 -35 -24 56 0
105 15 140 45 35 28 25 30 -25 5z"/>
<path d="M10820 11926 c-50 -28 -62 -31 -140 -30 -66 0 -76 -1 -45 -7 115 -22
206 -3 235 50 6 12 9 20 8 20 -2 -1 -28 -15 -58 -33z"/>
<path d="M9283 11746 c-27 -28 -43 -67 -43 -105 0 -41 7 -42 43 -6 41 41 145
75 230 75 73 0 67 10 -25 39 -93 29 -176 28 -205 -3z"/>
<path d="M10363 11645 c-23 -12 -40 -25 -37 -28 12 -11 81 19 88 39 7 18 0 16
-51 -11z"/>
<path d="M15360 11650 c-11 -11 -23 -20 -26 -20 -10 0 -34 -28 -34 -40 0 -6
-4 -8 -10 -5 -5 3 -10 1 -10 -5 0 -6 -4 -9 -8 -6 -5 3 -9 -1 -9 -9 0 -8 4 -15
9 -15 4 0 8 -7 8 -15 0 -8 -3 -14 -7 -14 -20 3 -34 -2 -28 -10 6 -10 44 -11
43 -1 -3 35 3 42 34 38 39 -6 61 13 61 53 0 16 4 29 9 29 4 0 8 -5 8 -11 0 -5
4 -8 10 -4 14 8 0 37 -16 31 -8 -3 -11 0 -7 10 7 20 -3 18 -27 -6z"/>
<path d="M14020 11624 c-30 -19 -77 -42 -104 -52 -37 -13 -52 -24 -62 -47 -7
-16 -9 -34 -4 -38 14 -15 124 -20 169 -7 75 20 131 101 97 139 -9 10 -16 23
-16 29 0 19 -21 12 -80 -24z"/>
<path d="M16886 11584 c-51 -76 -230 -256 -326 -326 -144 -105 -476 -326 -670
-446 -311 -191 -606 -374 -725 -450 -289 -183 -891 -560 -954 -597 -8 -4 -16
-2 -21 5 -8 13 -30 5 -30 -11 0 -6 5 -7 10 -4 6 3 10 2 10 -2 0 -11 -40 -36
-47 -29 -3 2 -15 -6 -27 -19 -11 -13 -28 -26 -36 -27 -8 -2 -19 -8 -25 -15
-11 -14 -175 -119 -405 -261 -85 -52 -272 -171 -415 -262 -863 -555 -1370
-858 -1620 -972 -118 -53 -328 -122 -435 -143 -111 -21 -327 -21 -440 0 -133
25 -296 81 -440 151 -73 35 -135 63 -137 60 -5 -5 117 -75 267 -154 100 -53
249 -111 322 -126 12 -3 34 -8 48 -11 14 -3 36 -8 49 -11 14 -3 29 -8 35 -12
23 -14 246 -16 294 -2 17 4 32 6 35 4 2 -3 15 0 29 5 13 5 53 12 88 16 36 4
70 11 75 15 6 4 29 10 53 14 24 3 55 12 70 20 51 27 162 76 187 82 14 3 25 10
25 15 0 5 6 9 13 10 6 0 31 10 54 22 23 12 67 35 97 51 31 15 56 31 56 35 0 3
15 12 33 20 17 8 42 22 53 33 12 10 25 18 30 16 12 -3 52 19 77 43 11 10 23
16 27 14 4 -3 13 2 20 10 7 8 16 12 21 9 5 -3 12 2 15 10 3 9 15 16 25 16 10
0 19 5 19 11 0 5 5 7 10 4 6 -3 10 -2 10 3 0 11 78 62 96 62 8 0 14 7 14 15 0
8 6 12 13 9 8 -3 20 2 27 11 7 8 17 15 22 15 6 0 30 14 55 30 24 17 51 30 59
30 7 0 14 5 14 11 0 5 24 21 54 35 30 13 60 31 66 39 7 8 17 15 22 15 10 0
107 67 118 81 3 3 16 10 30 14 21 6 84 47 100 64 3 4 19 13 35 21 17 8 35 20
41 25 6 6 20 15 30 22 11 7 42 27 69 45 28 18 64 40 80 48 17 8 32 18 35 22 3
4 35 21 70 38 82 39 118 60 105 60 -5 0 3 7 19 15 15 8 32 12 37 9 5 -3 12 2
15 10 3 9 12 16 20 16 8 0 14 4 14 10 0 5 21 19 48 31 26 12 49 25 52 28 3 4
23 18 45 31 21 13 47 31 56 40 34 30 48 40 57 40 5 0 17 9 28 21 10 12 37 30
60 41 23 10 51 28 62 38 12 11 28 20 37 20 8 0 15 4 15 9 0 4 21 19 48 32 26
13 54 30 63 37 9 7 27 15 40 17 13 3 25 9 27 15 2 5 10 10 17 10 8 0 18 6 22
13 4 8 15 17 23 21 17 8 38 21 97 59 24 15 45 27 48 27 6 0 40 27 71 56 13 12
25 20 27 17 3 -2 14 8 25 22 11 14 22 25 24 23 6 -4 68 36 68 45 0 5 6 7 14 4
8 -3 22 3 32 14 9 10 42 31 73 46 31 15 58 31 59 35 2 4 9 8 16 8 7 0 21 9 31
20 10 11 22 17 26 14 5 -3 9 -1 9 4 0 6 10 12 23 16 12 3 35 17 51 31 16 14
33 25 38 25 9 0 23 11 59 43 10 9 19 14 19 11 0 -4 6 -2 13 4 25 20 202 113
213 111 3 0 13 8 22 18 20 20 47 39 80 53 12 5 22 14 22 21 0 6 6 9 13 6 11
-4 80 38 109 67 8 7 27 21 43 30 17 9 46 28 65 42 65 45 69 48 150 92 65 35
115 64 129 76 12 9 13 8 6 -3 -10 -18 53 25 76 51 9 10 19 15 22 12 3 -3 10 4
17 15 6 12 17 21 25 21 8 0 28 14 45 31 16 18 30 28 30 23 0 -5 4 -4 8 3 8 12
158 103 171 103 4 0 15 8 24 18 8 9 41 31 71 47 31 17 59 38 62 48 3 10 12 16
19 13 12 -4 115 84 115 99 0 4 54 61 121 127 66 67 129 138 139 159 11 21 24
40 28 43 13 8 34 116 30 151 -3 28 -4 27 -42 -31z"/>
<path d="M15424 11587 c-3 -16 -3 -31 0 -34 3 -4 6 5 6 18 0 19 2 21 10 9 8
-12 10 -12 10 5 0 17 2 17 10 5 8 -12 10 -11 10 7 0 34 -38 26 -46 -10z"/>
<path d="M15400 11518 c0 -4 7 -8 15 -8 8 0 15 4 15 8 0 5 -7 9 -15 9 -8 0
-15 -4 -15 -9z"/>
<path d="M15220 11501 c0 -7 -4 -9 -10 -6 -5 3 -10 -1 -10 -9 0 -9 5 -16 10
-16 13 0 25 28 16 37 -3 4 -6 1 -6 -6z"/>
<path d="M10011 11480 c-1 -8 -17 -38 -35 -66 -62 -92 -233 -189 -365 -208
-107 -15 -117 -30 -15 -22 129 10 242 53 321 121 44 37 109 153 100 177 -4 10
-6 9 -6 -2z"/>
<path d="M15125 11450 c-4 -6 -10 -8 -15 -5 -12 7 -21 -10 -14 -28 3 -9 13
-13 25 -10 10 3 17 9 14 13 -3 5 -1 11 4 14 5 3 11 0 14 -7 5 -14 -18 -39 -27
-30 -3 4 -6 -2 -7 -13 0 -11 -3 -13 -6 -6 -2 6 -9 10 -14 6 -5 -3 -9 2 -9 10
0 9 -5 16 -11 16 -6 0 -8 -9 -4 -22 7 -22 6 -22 -7 -4 -12 16 -18 17 -37 6
-12 -6 -29 -9 -36 -6 -8 3 -17 0 -21 -6 -4 -7 -9 -6 -14 2 -6 10 -14 9 -36 -2
-177 -91 -292 -152 -303 -161 -8 -7 -16 -11 -18 -9 -2 2 -24 -6 -48 -18 -42
-20 -63 -26 -125 -34 -14 -2 -36 -6 -50 -9 -14 -3 -64 -13 -112 -22 -94 -19
-105 -29 -70 -68 16 -19 16 -20 0 -14 -15 5 -16 4 -6 -13 9 -13 15 -16 19 -8
5 7 10 2 14 -15 4 -14 23 -39 43 -54 21 -15 42 -32 47 -39 31 -36 220 -31 261
7 11 10 25 19 31 19 7 0 15 9 18 20 3 11 14 20 23 21 14 0 13 2 -3 9 -20 8 -8
15 22 11 6 -1 14 3 18 9 3 5 0 7 -8 4 -8 -3 -18 1 -23 8 -4 7 -4 10 0 6 4 -3
20 -2 36 2 20 6 30 5 34 -3 2 -7 5 -4 5 6 1 10 9 17 20 17 11 0 26 6 33 13 7
6 22 13 33 14 110 11 138 18 201 48 92 45 165 114 146 138 -5 7 -12 20 -16 31
-5 14 -2 17 9 12 14 -5 13 -1 -2 25 -15 25 -15 31 -4 38 7 5 10 14 7 20 -4 6
0 11 8 11 9 0 16 7 16 15 0 7 8 19 18 25 14 9 13 10 -10 6 -15 -4 -30 -2 -33
4 -8 13 -22 13 -30 0z"/>
<path d="M6930 11354 c-212 -120 -353 -224 -402 -297 -39 -58 -59 -132 -49
-182 5 -22 9 -32 10 -22 0 10 15 53 32 97 27 70 39 87 99 142 38 35 91 74 117
88 71 36 338 241 313 239 -3 0 -57 -29 -120 -65z"/>
<path d="M11621 11239 c-73 -49 -168 -109 -210 -131 -42 -23 -108 -63 -148
-90 -82 -55 -84 -64 -22 -124 l40 -39 52 30 c67 37 205 130 237 160 14 12 64
47 111 78 96 61 119 87 119 132 -1 25 -29 76 -42 75 -1 0 -63 -41 -137 -91z"/>
<path d="M16950 11203 c-103 -196 -334 -401 -750 -666 -78 -49 -112 -65 -130
-61 -20 3 -21 3 -6 -4 16 -7 3 -18 -73 -65 -51 -32 -97 -54 -103 -51 -6 4 -8
3 -5 -3 4 -6 -38 -38 -94 -72 -73 -45 -97 -56 -88 -40 8 16 8 20 -1 14 -6 -4
-15 -18 -20 -31 -11 -28 -22 -30 -44 -8 -14 13 -16 14 -16 0 0 -20 -19 -31
-33 -17 -7 7 -14 5 -23 -7 -12 -15 -15 -15 -23 -2 -6 8 -13 11 -17 7 -4 -4 -2
-13 4 -19 7 -7 12 -15 12 -18 0 -8 -50 -33 -68 -34 -16 -1 -53 -57 -45 -69 3
-5 -4 -4 -16 2 -17 10 -21 9 -21 -4 0 -9 5 -13 10 -10 6 3 10 4 10 1 0 -10
-70 -47 -80 -41 -5 3 -10 0 -10 -8 0 -8 -7 -18 -16 -21 -9 -4 -13 -2 -8 5 4 7
1 10 -7 7 -8 -3 -13 -11 -11 -17 1 -7 -2 -10 -7 -7 -5 4 -24 -7 -41 -24 -18
-17 -35 -29 -38 -25 -4 3 0 10 8 15 8 5 12 12 8 15 -8 8 -39 -25 -33 -35 3 -5
-10 -6 -30 -3 -30 5 -34 3 -29 -11 3 -9 1 -16 -5 -16 -6 0 -11 -6 -11 -14 0
-8 -5 -18 -12 -22 -7 -4 -8 -3 -4 4 4 7 3 12 -3 12 -5 0 -12 -4 -16 -9 -3 -6
-15 -8 -28 -5 -32 6 -58 -5 -56 -24 2 -28 -2 -58 -7 -46 -6 14 -44 6 -44 -8 0
-6 -6 -8 -13 -5 -8 3 -20 1 -28 -4 -11 -7 -10 -9 6 -10 11 -1 25 -1 30 0 22 3
-42 -40 -67 -45 -15 -4 -26 -10 -23 -14 3 -4 -2 -10 -10 -13 -11 -5 -12 -1 -5
19 14 36 13 36 -16 7 -14 -14 -23 -32 -20 -40 4 -9 2 -11 -7 -6 -26 16 -57 14
-57 -4 0 -15 -2 -16 -10 -3 -7 11 -10 12 -10 2 0 -23 -31 -44 -67 -45 -6 0 -9
-6 -6 -14 5 -13 -1 -15 -44 -16 -12 0 -20 -4 -17 -8 3 -5 -4 -9 -15 -9 -11 0
-22 -4 -26 -9 -3 -5 -19 -12 -35 -16 -17 -4 -28 -11 -24 -16 3 -5 11 -6 17 -3
7 3 -1 -5 -17 -20 -16 -14 -35 -26 -42 -26 -8 0 -16 -11 -20 -25 -6 -24 -7
-24 -19 -8 -8 10 -17 14 -21 10 -5 -4 -2 -12 6 -17 12 -7 12 -10 -3 -16 -10
-4 -16 -13 -13 -20 3 -8 2 -13 -2 -13 -20 3 -46 -3 -34 -8 16 -6 3 -15 -188
-135 -178 -111 -168 -105 -153 -87 10 13 10 16 -2 16 -8 0 -15 -7 -16 -16 0
-10 -3 -11 -5 -4 -3 7 -12 9 -20 6 -11 -4 -12 -8 -3 -19 10 -12 9 -13 -5 -8
-11 4 -16 1 -16 -12 0 -13 -3 -15 -8 -7 -13 20 -59 4 -111 -38 -19 -16 -38
-26 -43 -23 -4 3 -8 -2 -8 -10 0 -9 -7 -16 -14 -16 -8 0 -27 -11 -42 -25 -14
-13 -31 -22 -37 -18 -5 3 -8 2 -5 -3 16 -27 -22 -59 -193 -166 -101 -62 -191
-112 -201 -112 -10 1 -15 -3 -12 -7 7 -12 -124 -95 -142 -91 -8 2 -13 -3 -12
-10 2 -7 -3 -12 -9 -11 -7 2 -13 -1 -13 -6 0 -5 -95 -69 -210 -143 -116 -73
-272 -173 -348 -221 -504 -322 -825 -496 -1042 -566 -449 -143 -879 -88 -1328
171 -59 33 -117 68 -129 76 -13 8 -23 12 -23 9 0 -13 352 -223 498 -296 93
-47 223 -91 327 -112 111 -22 460 -19 555 5 41 10 85 18 97 17 19 -1 65 16
103 38 8 5 33 14 55 21 22 7 66 28 98 46 32 19 65 34 73 34 7 0 14 5 14 10 0
6 7 10 15 10 18 0 115 46 200 94 33 19 63 32 67 30 5 -3 8 -1 8 5 0 6 19 20
43 32 23 12 50 28 60 37 9 8 17 12 17 8 0 -4 12 2 26 13 15 12 33 21 40 21 8
0 14 4 14 9 0 5 21 19 48 32 26 12 51 29 55 36 8 13 64 46 70 41 2 -2 20 10
40 25 20 15 37 24 37 20 0 -4 4 -3 8 3 11 18 107 74 126 74 9 0 16 6 16 13 0
7 16 19 35 27 19 8 35 17 35 22 0 4 8 5 18 1 9 -3 14 -3 10 2 -15 17 13 43 73
66 36 14 64 31 67 42 2 9 13 17 23 17 11 0 19 5 19 10 0 6 7 10 15 10 8 0 15
4 15 8 0 5 23 19 50 32 28 13 50 28 50 33 0 5 7 6 16 3 8 -3 12 -2 9 4 -3 5 9
16 27 25 42 19 90 49 153 94 27 20 53 36 58 36 4 0 20 10 35 23 62 54 146 112
178 124 19 6 34 15 34 19 0 4 9 11 20 14 11 3 26 12 33 18 17 16 76 47 89 47
5 0 16 6 23 13 31 27 44 37 51 37 13 0 80 35 98 51 10 10 25 15 33 12 8 -3 13
0 11 7 -2 7 17 23 41 36 54 29 151 103 151 115 0 5 9 9 19 9 10 0 21 6 24 13
3 7 49 40 103 72 55 33 101 63 102 67 2 5 12 8 23 8 10 0 19 3 19 8 0 4 23 15
51 25 27 10 53 25 56 33 3 8 12 14 20 14 9 0 21 7 27 16 6 8 19 16 27 17 9 2
25 11 35 21 10 10 33 25 51 32 18 8 47 27 65 43 18 16 53 39 76 51 24 13 46
29 49 36 3 8 11 14 19 14 8 0 14 4 14 9 0 5 26 21 58 37 31 15 59 31 62 34 10
15 76 50 93 50 9 0 17 5 17 10 0 6 27 23 60 38 33 15 60 33 60 40 0 6 7 12 15
12 7 0 18 6 22 14 4 7 32 25 61 40 28 14 52 31 52 36 0 6 6 10 13 10 7 0 23 9
35 20 12 11 28 20 37 20 8 0 15 4 15 8 0 5 21 19 48 32 26 13 72 41 103 62 31
21 64 38 73 38 9 0 16 3 16 8 0 7 90 67 100 67 3 0 16 10 29 22 14 13 33 25
43 29 10 3 18 9 18 14 0 4 25 19 55 34 30 14 55 30 55 36 0 5 6 10 14 10 7 0
19 7 26 15 7 8 20 15 30 15 10 0 20 7 24 15 3 8 12 15 19 15 8 0 22 9 32 20
10 11 24 20 31 20 7 0 35 18 63 40 28 22 55 40 61 40 5 0 10 4 10 9 0 9 29 28
78 50 12 6 22 15 22 21 0 5 7 10 15 10 8 0 15 3 15 8 0 4 16 18 35 31 19 13
45 33 58 45 13 11 50 45 83 74 113 101 129 117 157 154 15 20 27 41 27 47 0 6
5 11 10 11 18 0 60 110 84 220 14 58 23 106 23 107 -1 1 -22 -37 -47 -84z
m-1485 -1123 c-3 -5 -11 -10 -16 -10 -6 0 -7 5 -4 10 3 6 11 10 16 10 6 0 7
-4 4 -10z m-422 -263 c-3 -5 -11 -6 -19 -3 -8 3 -14 0 -14 -6 0 -6 -3 -9 -6
-5 -10 10 3 23 25 23 11 0 17 -4 14 -9z"/>
<path d="M8810 11235 c0 -16 55 -95 79 -111 29 -21 26 -9 -9 34 -16 20 -39 48
-50 62 -10 14 -19 21 -20 15z"/>
<path d="M14212 10974 c10 -10 20 -15 24 -12 3 4 -5 12 -18 18 -22 12 -22 12
-6 -6z"/>
<path d="M8395 10946 c44 -36 185 -120 190 -114 5 5 -136 103 -182 127 -36 18
-40 12 -8 -13z"/>
<path d="M9273 10946 c-48 -24 -57 -42 -15 -31 34 8 72 32 72 45 0 13 -7 11
-57 -14z"/>
<path d="M17024 10808 c-56 -112 -197 -288 -230 -288 -8 0 -14 -4 -14 -10 0
-5 -8 -10 -18 -10 -9 0 -28 -13 -42 -29 -13 -17 -27 -28 -32 -25 -4 3 -8 0 -8
-7 0 -7 -3 -9 -7 -6 -3 4 -12 -2 -20 -13 -9 -12 -26 -20 -44 -20 -16 0 -29 -4
-29 -9 0 -5 -9 -13 -20 -16 -11 -3 -20 -13 -20 -21 0 -8 -8 -14 -19 -14 -31 0
-78 -24 -74 -37 3 -7 0 -13 -6 -13 -6 0 -11 5 -11 10 0 6 -19 -10 -42 -35 -23
-25 -47 -45 -54 -45 -6 0 -23 -9 -38 -21 -14 -11 -30 -18 -35 -14 -5 3 -13 0
-16 -6 -4 -5 -13 -8 -20 -5 -7 2 -16 -1 -18 -8 -3 -7 -27 -25 -55 -39 -37 -19
-52 -23 -61 -14 -8 8 -11 6 -11 -8 0 -10 -3 -16 -6 -12 -10 10 -67 -23 -93
-54 -13 -16 -30 -29 -38 -29 -8 0 -11 -4 -8 -10 3 -5 -1 -10 -10 -10 -28 0
-149 -64 -180 -96 -16 -17 -49 -38 -73 -47 -24 -10 -52 -25 -62 -35 -11 -10
-36 -24 -57 -31 -21 -8 -45 -22 -54 -32 -9 -11 -21 -19 -28 -19 -6 0 -11 -5
-11 -11 0 -5 -4 -8 -9 -5 -5 4 -11 3 -13 -1 -1 -5 -29 -21 -61 -38 -32 -16
-57 -34 -57 -38 2 -13 -32 -36 -51 -37 -9 0 -20 -7 -23 -16 -3 -8 -10 -13 -14
-10 -5 3 -19 -6 -32 -19 -13 -13 -27 -22 -31 -19 -5 3 -9 -3 -10 -13 0 -10 -3
-13 -6 -6 -3 8 -13 4 -30 -13 -13 -13 -42 -32 -64 -42 -26 -11 -37 -22 -34
-31 4 -11 3 -12 -10 -1 -12 10 -15 10 -15 -4 0 -10 -4 -15 -9 -11 -5 3 -15 -1
-23 -8 -7 -8 -21 -13 -31 -11 -9 1 -17 -2 -17 -7 0 -5 -8 -9 -17 -9 -18 0 -83
-40 -133 -80 -14 -11 -42 -28 -62 -38 -21 -9 -43 -29 -50 -43 -7 -15 -18 -25
-24 -22 -7 3 -21 -5 -31 -16 -9 -12 -22 -21 -28 -21 -6 0 -16 -9 -23 -20 -7
-12 -17 -18 -22 -15 -6 3 -10 2 -10 -4 0 -17 -46 -61 -64 -61 -9 0 -16 -7 -16
-16 0 -8 -4 -13 -10 -9 -10 6 -42 -10 -72 -36 -10 -8 -40 -21 -68 -28 -30 -8
-50 -18 -50 -27 0 -8 -3 -13 -7 -12 -19 4 -70 -17 -93 -39 -13 -12 -32 -23
-41 -23 -9 0 -27 -10 -40 -21 -13 -12 -34 -28 -46 -36 -13 -8 -20 -19 -17 -24
3 -5 -3 -9 -14 -9 -18 0 -82 -55 -82 -71 0 -4 -10 -11 -22 -15 -13 -4 -36 -20
-52 -35 -16 -16 -38 -31 -48 -35 -10 -3 -18 -10 -18 -16 0 -6 -6 -6 -15 2 -9
8 -15 8 -15 2 0 -6 -10 -12 -22 -14 -14 -2 -23 -10 -22 -20 1 -10 -4 -14 -12
-11 -9 3 -14 -2 -14 -13 0 -16 -2 -17 -10 -4 -7 11 -10 11 -10 2 0 -10 -5 -10
-20 -2 -17 9 -20 8 -20 -10 0 -17 -4 -20 -19 -15 -13 4 -23 0 -29 -10 -5 -9
-13 -16 -18 -16 -5 0 -9 -7 -9 -16 0 -9 -6 -18 -13 -19 -7 -1 -8 0 -2 3 5 2 8
9 5 13 -8 13 -35 1 -35 -15 0 -7 -12 -16 -27 -20 -15 -3 -36 -17 -47 -30 -23
-25 -74 -46 -61 -25 6 9 4 11 -4 6 -7 -5 -10 -14 -7 -22 3 -8 -1 -14 -8 -14
-8 0 -17 -6 -19 -12 -4 -10 -6 -10 -6 0 -1 17 -21 15 -21 -2 0 -7 -9 -16 -21
-19 -12 -3 -18 -10 -15 -16 4 -5 -2 -15 -13 -20 -14 -8 -21 -8 -24 2 -3 7 -6
5 -6 -5 -1 -11 -9 -18 -21 -18 -11 0 -20 -7 -20 -15 0 -8 -9 -15 -20 -15 -11
0 -20 -4 -20 -8 0 -5 -17 -14 -38 -20 -20 -6 -53 -23 -72 -37 -25 -19 -36 -22
-42 -12 -5 7 -8 2 -8 -16 0 -16 -4 -26 -9 -23 -5 3 -14 -1 -21 -9 -7 -8 -19
-15 -26 -15 -8 0 -14 -8 -14 -17 0 -14 -2 -15 -9 -4 -6 9 -11 10 -15 2 -4 -6
-11 -9 -16 -6 -5 3 -11 -4 -15 -15 -3 -11 -12 -20 -19 -20 -8 0 -19 -7 -26
-15 -7 -9 -15 -13 -18 -10 -3 3 -11 -4 -19 -15 -8 -11 -23 -20 -33 -20 -10 0
-25 -7 -34 -15 -8 -8 -17 -15 -21 -15 -3 0 -15 -9 -27 -20 -12 -10 -25 -17
-30 -14 -4 3 -8 -2 -8 -11 0 -9 -4 -14 -9 -11 -8 6 -59 -28 -73 -49 -4 -5 -11
-10 -15 -11 -4 0 -21 -6 -36 -12 -16 -7 -33 -12 -39 -12 -6 0 -26 -13 -45 -30
-18 -16 -40 -30 -48 -30 -8 0 -15 -4 -15 -10 0 -5 -7 -10 -16 -10 -8 0 -13 -4
-10 -8 3 -5 -7 -17 -21 -28 -26 -19 -29 -20 -58 -23 -8 0 -15 -5 -15 -11 0
-15 -35 -47 -59 -55 -12 -3 -19 -11 -15 -16 3 -6 -3 -13 -15 -16 -12 -3 -21
-11 -21 -18 0 -8 -8 -11 -20 -8 -11 3 -20 1 -20 -5 0 -5 -11 -13 -25 -16 -14
-4 -25 -11 -25 -16 0 -6 -6 -10 -14 -10 -7 0 -19 -7 -26 -15 -7 -9 -19 -14
-26 -11 -8 3 -11 0 -7 -10 4 -10 1 -15 -8 -13 -14 2 -74 -21 -120 -46 -14 -8
-30 -11 -34 -7 -5 4 -5 2 -1 -5 4 -7 -3 -17 -16 -24 -13 -7 -25 -15 -28 -19
-3 -3 -31 -21 -62 -39 -32 -18 -58 -37 -58 -42 0 -5 -3 -8 -8 -6 -4 1 -17 -8
-29 -20 -26 -26 -176 -75 -304 -100 -136 -25 -470 -25 -589 1 -149 32 -270 76
-450 162 -96 46 -164 76 -151 65 27 -20 283 -161 294 -161 4 0 41 -16 83 -35
41 -19 79 -35 82 -35 4 0 59 -20 122 -45 142 -56 252 -77 395 -77 120 -1 159
4 280 32 44 11 96 22 115 25 85 15 244 70 349 122 30 15 62 29 70 30 21 3 255
131 323 176 16 10 28 15 28 11 0 -4 8 0 18 8 16 15 111 73 217 133 28 15 52
31 55 35 3 3 28 19 55 34 71 40 206 128 229 148 11 10 23 18 27 18 3 0 39 22
80 49 41 26 84 51 96 55 13 4 29 13 35 19 19 18 197 127 207 127 5 0 11 6 14
13 2 7 22 21 43 32 22 11 41 23 44 26 5 7 45 32 124 76 76 43 85 49 103 64 10
8 34 23 53 33 19 11 54 32 78 48 24 15 45 28 48 28 3 0 17 11 32 25 15 14 36
28 47 31 11 4 30 16 43 27 12 11 22 16 22 11 0 -5 4 -4 8 2 10 15 135 97 192
126 14 7 27 15 30 19 6 7 139 88 195 118 53 28 73 41 116 74 20 15 41 27 46
27 6 0 18 9 28 20 10 11 24 20 31 20 7 0 14 3 16 8 5 11 66 52 77 52 5 0 16 6
23 13 7 7 54 37 103 67 50 29 110 66 134 82 25 15 50 28 57 28 7 0 17 6 21 13
4 6 22 19 38 27 17 8 41 25 54 37 14 12 38 28 55 35 17 7 38 19 47 28 28 24
43 35 59 43 19 10 39 22 112 70 60 39 107 62 121 58 5 -1 6 2 3 7 -4 7 36 33
54 34 3 0 11 9 18 19 7 11 20 19 28 19 8 0 17 7 20 15 4 8 12 15 19 15 7 0 24
9 39 21 14 11 26 17 26 13 0 -4 8 0 18 8 32 29 185 129 307 201 66 39 122 74
125 77 8 10 162 110 170 110 3 0 17 11 30 25 13 14 27 25 32 25 11 0 64 37
101 69 15 14 27 21 27 17 0 -4 6 -2 13 4 6 6 44 33 82 61 118 83 143 104 260
218 82 80 135 139 135 151 0 5 6 15 13 22 20 19 77 143 77 165 0 10 4 23 9 29
14 15 23 101 12 108 -6 4 -22 -17 -37 -46z"/>
<path d="M6497 10780 c10 -55 10 -130 0 -190 -6 -36 -5 -41 4 -24 19 36 60 53
119 49 l53 -3 -76 76 c-41 43 -82 91 -91 107 l-17 30 8 -45z"/>
<path d="M8973 10765 c-12 -8 -45 -20 -75 -27 l-53 -13 39 -3 c41 -4 88 11
107 34 17 21 6 26 -18 9z"/>
<path d="M11860 10751 c-81 -17 -141 -71 -160 -144 -25 -96 -31 -107 -89 -151
-32 -24 -85 -56 -120 -70 -67 -27 -100 -58 -101 -93 0 -12 -10 -27 -22 -34
-21 -11 -21 -12 -2 -26 34 -26 148 -13 224 24 68 33 93 64 151 185 20 43 31
51 113 93 122 61 209 82 284 68 31 -6 58 -10 59 -9 2 1 -19 29 -45 62 -76 95
-158 122 -292 95z"/>
<path d="M8655 10539 c-17 -11 -23 -19 -14 -19 17 0 57 26 49 33 -3 2 -18 -4
-35 -14z"/>
<path d="M16083 10505 c0 -8 4 -15 9 -15 4 0 8 7 8 15 0 8 -4 15 -8 15 -5 0
-9 -7 -9 -15z"/>
<path d="M16030 10460 c0 -5 5 -10 11 -10 5 0 7 5 4 10 -3 6 -8 10 -11 10 -2
0 -4 -4 -4 -10z"/>
<path d="M6474 10356 c3 -43 6 -96 6 -118 0 -29 4 -38 18 -38 21 0 158 -42
193 -59 l24 -12 -25 21 c-143 121 -200 187 -200 234 0 12 -5 28 -11 36 -8 11
-9 -7 -5 -64z"/>
<path d="M12660 10261 c-80 -81 -173 -157 -230 -186 -116 -60 -413 -144 -529
-150 -91 -4 -99 -7 -111 -41 -6 -15 -18 -24 -32 -25 -42 -1 54 -38 133 -50 98
-15 283 -6 381 20 131 34 188 63 316 161 68 52 134 101 146 109 30 19 83 124
92 181 6 44 6 44 -10 23 -20 -28 -34 -29 -43 -5 -7 17 -29 43 -35 41 -2 -1
-37 -36 -78 -78z"/>
<path d="M15816 10325 c-11 -8 -16 -15 -10 -15 5 0 18 7 28 15 11 8 16 15 10
15 -5 0 -18 -7 -28 -15z"/>
<path d="M15770 10300 c-8 -5 -12 -12 -9 -15 4 -3 12 1 19 10 14 17 11 19 -10
5z"/>
<path d="M15656 10225 c-3 -8 -1 -15 4 -15 6 0 10 7 10 15 0 8 -2 15 -4 15 -2
0 -6 -7 -10 -15z"/>
<path d="M10234 10108 c-9 -18 -44 -59 -76 -90 -52 -50 -65 -57 -112 -63 -74
-10 -99 -24 -103 -60 -6 -46 -11 -55 -33 -55 -27 0 -26 -16 3 -24 40 -11 144
-6 185 8 22 8 75 39 119 69 104 72 112 74 178 43 30 -14 55 -22 55 -17 0 4
-36 46 -79 93 -44 48 -85 96 -91 107 -15 29 -27 26 -46 -11z"/>
<path d="M15411 10084 c0 -11 3 -14 6 -6 3 7 2 16 -1 19 -3 4 -6 -2 -5 -13z"/>
<path d="M14646 9634 c-17 -12 -17 -14 -4 -14 9 0 20 5 23 11 11 17 2 18 -19
3z"/>
<path d="M11545 9569 c-54 -54 -92 -77 -177 -103 -75 -22 -105 -49 -110 -96
-3 -23 2 -26 57 -37 113 -24 219 6 265 74 22 32 25 46 23 112 -2 41 -6 78 -11
83 -4 4 -26 -10 -47 -33z"/>
<path d="M18852 9190 c0 -14 2 -19 5 -12 2 6 2 18 0 25 -3 6 -5 1 -5 -13z"/>
<path d="M18761 9144 c-15 -18 -26 -23 -30 -15 -5 8 -13 7 -27 -5 -18 -14 -18
-15 6 -8 l25 7 -20 -24 c-19 -23 -19 -23 14 2 31 23 70 69 59 69 -2 0 -15 -12
-27 -26z"/>
<path d="M18573 9012 c-64 -53 -162 -126 -333 -245 -128 -90 -377 -253 -402
-264 -31 -13 -205 -122 -438 -273 -91 -59 -232 -150 -315 -202 -82 -52 -301
-191 -485 -308 -184 -117 -387 -245 -450 -285 -121 -75 -378 -240 -695 -445
-104 -67 -269 -172 -365 -233 -96 -60 -209 -132 -251 -158 -41 -27 -80 -49
-86 -49 -6 0 -13 -4 -15 -8 -4 -11 -125 -90 -550 -360 -172 -110 -475 -304
-673 -432 -616 -399 -684 -441 -865 -540 -442 -240 -890 -383 -1350 -430 -253
-26 -692 -9 -955 36 -376 64 -824 240 -1220 479 -114 69 -432 281 -943 631
-83 57 -152 102 -152 99 0 -5 175 -139 208 -160 9 -5 48 -33 87 -61 39 -28
112 -78 161 -111 171 -114 379 -256 414 -283 61 -47 283 -196 320 -215 19 -10
80 -46 135 -80 137 -85 185 -110 396 -208 255 -118 534 -207 739 -237 41 -6
86 -14 100 -17 14 -2 185 -6 380 -8 347 -4 551 7 660 35 19 5 69 16 110 25 41
8 107 22 145 31 39 9 82 17 98 17 15 0 27 3 27 6 0 3 16 7 36 8 40 2 142 31
162 46 6 5 12 7 12 3 0 -3 16 1 36 9 20 8 47 15 60 15 13 0 24 5 24 10 0 6 8
10 18 10 10 0 23 5 30 12 9 9 12 9 12 -2 0 -10 4 -8 14 5 7 10 24 19 37 21 48
4 74 14 92 35 9 12 17 16 17 9 0 -10 3 -10 15 0 12 10 18 10 30 0 12 -10 15
-7 20 13 5 18 12 23 26 20 11 -3 19 0 19 6 0 7 5 9 10 6 6 -3 10 0 11 7 0 7 4
4 9 -7 5 -11 9 -15 9 -9 1 5 17 16 36 24 19 8 35 18 35 23 0 5 7 7 15 3 10 -3
15 1 15 11 0 9 3 13 6 10 4 -3 16 -1 28 5 11 7 23 12 26 13 10 1 85 49 88 57
2 4 10 8 17 8 7 0 16 6 18 13 3 6 6 2 6 -10 1 -28 23 -21 41 12 11 21 14 22
28 9 19 -20 25 -13 13 17 -8 23 -6 24 32 26 27 1 46 8 55 20 7 10 18 17 24 15
6 -1 16 5 24 15 8 11 17 14 21 8 11 -14 40 -17 48 -5 3 5 0 10 -7 10 -7 0 -2
9 12 19 13 11 28 17 32 15 4 -3 8 3 8 13 0 12 3 14 8 6 9 -14 52 -6 52 9 0 5
-4 6 -10 3 -5 -3 -10 -1 -10 4 0 14 16 14 41 0 15 -7 24 -7 35 2 8 6 14 8 14
4 0 -4 7 -2 15 5 8 7 15 9 15 4 0 -5 5 -2 10 6 5 8 7 23 4 34 -6 17 -5 18 16
3 21 -14 24 -13 56 21 l33 35 10 -24 c5 -13 10 -18 10 -11 1 16 31 48 31 33 0
-19 22 -12 27 9 3 11 9 20 14 20 5 0 9 7 9 16 0 11 6 15 19 11 13 -3 21 1 24
14 3 11 12 19 21 19 9 0 16 5 16 11 0 5 3 8 8 6 4 -2 18 7 32 20 16 16 19 22
7 17 -13 -5 -16 -2 -11 9 8 22 34 9 34 -16 0 -20 0 -20 14 -1 8 10 10 21 5 22
-5 2 -9 11 -9 20 0 15 2 15 10 2 8 -13 10 -12 10 3 0 14 5 17 19 12 13 -4 23
0 29 11 6 11 17 15 30 12 14 -4 22 0 25 13 4 15 12 17 51 13 44 -5 46 -4 60
30 14 34 35 44 79 37 4 0 7 7 7 17 0 13 9 19 36 20 20 2 45 7 54 12 10 5 21 6
25 2 4 -4 4 4 1 18 -6 23 -6 23 7 8 17 -22 41 -24 34 -3 -7 17 9 30 18 15 11
-19 26 -10 20 11 -6 18 -4 20 13 15 14 -5 21 -1 25 14 3 11 11 20 19 20 11 0
11 -2 -1 -9 -10 -7 -11 -13 -2 -27 9 -17 10 -17 11 -1 0 9 5 17 11 17 6 0 8 8
4 19 -8 27 23 36 48 14 19 -17 19 -17 13 5 -7 22 9 33 16 10 5 -14 48 20 48
38 0 7 7 14 15 18 8 3 12 12 9 21 -3 8 -1 15 5 15 6 0 11 -6 11 -12 0 -9 3 -8
10 2 11 18 31 20 43 5 9 -10 6 2 -10 43 -6 15 -3 14 17 -3 22 -19 23 -19 17
-1 -5 13 -3 17 7 13 8 -3 20 1 26 9 15 17 34 19 24 2 -4 -7 -3 -8 4 -4 7 4 12
14 12 22 0 8 6 14 13 14 6 1 23 10 36 21 20 16 22 22 11 29 -10 6 -7 9 11 12
13 2 34 -3 47 -11 12 -7 25 -11 29 -8 3 4 14 2 23 -3 13 -7 20 -6 24 5 7 18
46 20 46 3 0 -7 7 0 15 16 20 38 19 43 -5 21 -33 -30 -23 -8 12 25 17 17 34
27 37 22 3 -5 17 -5 31 -1 14 4 21 7 15 8 -5 1 4 9 20 20 35 22 48 18 39 -12
-6 -22 -6 -22 11 1 9 12 23 22 31 22 9 0 12 5 8 12 -4 6 -3 8 4 4 5 -3 13 0
16 6 3 7 4 4 1 -7 -4 -16 0 -21 17 -22 18 -2 20 0 8 7 -12 7 -13 13 -3 27 6
10 16 17 21 16 6 -1 16 5 24 14 11 14 11 16 -2 8 -13 -8 -13 -6 -1 8 7 9 18
14 24 10 7 -4 8 0 4 11 -5 14 -3 17 8 12 9 -3 15 0 15 9 0 9 6 12 15 9 8 -4
15 -2 15 4 0 6 -6 12 -12 15 -7 2 -1 8 15 12 15 4 27 14 27 22 0 12 2 12 13 1
8 -7 16 -19 18 -26 3 -9 9 -9 25 2 16 12 21 24 18 51 -1 19 2 35 7 35 5 0 9
-7 9 -15 0 -28 18 -15 26 17 l7 33 15 -23 c20 -31 30 -28 28 10 -2 35 35 81
58 72 7 -3 16 2 19 10 7 17 37 22 37 7 0 -4 11 -6 25 -3 16 3 24 10 23 20 -2
9 5 18 14 20 13 2 16 -1 12 -12 -5 -12 -2 -15 10 -10 9 3 16 12 16 20 0 15 30
54 42 54 5 0 8 -5 8 -11 0 -5 -3 -8 -8 -5 -4 2 -12 -6 -18 -19 -9 -19 -9 -22
2 -18 8 3 14 8 14 12 0 6 29 20 84 41 27 10 28 9 15 -6 -12 -15 -12 -17 1 -12
8 2 16 17 18 32 3 24 7 27 27 22 13 -3 27 -2 30 4 3 5 1 11 -4 11 -12 2 -26 5
-38 9 -5 1 -11 2 -15 1 -4 0 -5 6 -2 14 7 17 40 29 55 19 7 -4 9 -3 5 4 -4 7
2 10 14 9 16 -1 20 -6 16 -22 -5 -20 -5 -20 10 0 8 11 21 28 29 38 8 9 15 22
15 28 0 8 4 8 13 1 18 -15 41 2 35 25 -3 12 0 20 8 20 7 0 10 -5 7 -10 -3 -6
-1 -7 5 -3 7 4 12 13 12 20 0 8 10 13 23 12 15 -1 22 4 21 16 -1 11 4 14 14
11 10 -4 13 -2 8 5 -11 18 13 24 30 8 21 -22 27 -20 14 3 -11 22 -14 62 -2 46
4 -7 16 -2 31 12 16 16 20 23 10 24 -8 0 -5 4 6 8 12 5 33 3 53 -5 24 -10 32
-10 34 -1 0 7 2 17 2 22 2 14 39 50 59 58 9 3 17 15 17 25 0 10 11 24 25 30
14 7 28 19 31 27 5 11 10 12 26 4 16 -9 19 -8 13 1 -6 9 -1 12 17 8 13 -2 29
1 36 8 19 21 14 27 -15 20 -16 -3 -22 -3 -15 0 6 3 12 13 12 22 0 11 3 13 8 6
11 -18 35 -21 71 -12 25 7 36 6 42 -4 6 -9 9 -4 9 15 0 15 5 27 11 27 6 0 8
-9 3 -22 -6 -19 -1 -17 25 11 26 27 34 31 46 21 10 -8 15 -9 15 -2 0 6 -4 14
-10 17 -5 3 -10 11 -10 16 0 6 5 7 10 4 6 -3 10 1 10 9 0 9 -7 16 -15 16 -8 0
-15 -9 -15 -20 0 -18 -6 -22 -26 -19 -4 0 -11 -5 -15 -13 -7 -10 -9 -10 -9 0
0 16 53 72 69 72 7 0 10 4 7 9 -3 5 1 12 10 15 22 8 26 8 19 -4 -8 -13 40 -8
52 5 5 4 2 5 -6 0 -11 -6 -13 -4 -8 9 4 10 7 23 7 29 0 6 7 2 15 -9 13 -17 14
-17 15 -1 0 9 4 17 10 17 5 0 7 7 4 15 -4 11 -2 13 9 9 9 -3 13 -13 10 -25 -3
-10 0 -19 6 -19 5 0 8 7 5 15 -4 8 -1 15 4 15 6 0 13 9 17 19 3 11 12 18 19
15 8 -3 16 4 19 15 3 12 12 21 21 21 9 0 16 7 16 15 0 9 7 18 15 21 8 4 15 10
15 16 0 5 8 17 17 26 16 16 16 16 10 -1 -5 -13 -3 -17 5 -14 7 2 13 14 12 26
0 14 4 20 13 17 7 -3 13 1 13 10 0 8 4 13 9 9 5 -3 15 0 23 7 7 7 28 14 46 15
18 0 36 4 40 8 8 7 -19 26 -29 19 -4 -2 -10 3 -13 11 -4 12 0 15 17 14 39 -4
58 1 52 11 -3 6 -1 10 4 10 6 0 11 6 11 14 0 9 7 12 21 9 19 -5 20 -4 10 15
-9 18 -8 25 9 42 11 11 23 19 28 19 25 -4 33 3 27 24 -5 18 -4 19 5 7 9 -11
13 -12 17 -2 2 6 11 12 19 12 9 0 12 5 9 10 -3 6 -1 10 4 10 6 0 11 -4 11 -10
0 -5 5 -10 11 -10 6 0 8 7 5 16 -4 12 -2 15 9 11 8 -4 17 -2 19 2 3 5 17 7 31
6 14 -2 25 1 25 6 0 13 47 60 57 58 5 -1 12 8 18 20 5 11 13 21 17 21 5 0 8 7
8 15 0 8 5 15 10 15 6 0 10 9 10 19 0 11 5 23 10 26 6 3 10 19 10 35 0 16 5
32 10 35 6 3 10 22 10 41 0 19 4 34 8 34 5 0 15 18 22 40 7 22 17 40 22 40 7
0 13 -232 8 -347 -1 -41 0 -43 26 -41 16 2 29 10 32 20 2 10 7 16 11 14 3 -1
15 6 25 17 16 17 17 19 3 14 -10 -4 -17 -1 -17 6 0 19 21 36 36 30 10 -4 12 0
7 13 -4 12 -3 15 5 10 8 -5 10 -1 5 10 -5 12 -3 15 6 9 7 -4 5 5 -5 21 -11 15
-13 25 -6 21 6 -5 12 -4 12 1 0 4 14 24 30 42 17 18 30 30 30 25 0 -4 9 0 20
10 11 10 20 22 20 27 0 5 7 16 16 25 8 9 13 22 10 30 -4 11 -1 11 14 3 12 -6
20 -7 20 -1 0 5 -6 11 -12 14 -10 3 -10 7 -1 19 7 8 9 19 5 23 -4 5 -2 5 5 2
15 -9 43 2 43 18 0 7 6 13 13 12 35 -1 67 4 66 11 -4 22 3 30 22 25 19 -5 20
-4 10 14 -8 16 -7 24 3 32 7 6 16 8 20 4 4 -4 4 0 0 10 -4 13 -10 15 -19 7 -9
-7 -16 -6 -25 6 -12 14 -14 14 -22 -1 -9 -16 -28 -12 -28 6 0 6 5 7 11 4 6 -4
13 2 16 13 3 13 11 18 19 15 9 -3 14 2 15 13 0 13 4 10 11 -9 8 -22 13 -26 24
-16 15 12 9 33 -7 24 -5 -4 -4 6 3 20 l12 26 17 -33 c10 -20 25 -33 38 -34 21
-1 37 21 21 31 -6 4 -10 2 -10 -3 0 -6 -6 -12 -14 -15 -9 -4 -7 7 8 33 11 22
23 35 24 30 2 -6 8 -8 13 -4 5 3 9 -5 10 -18 1 -21 1 -21 11 5 5 15 16 27 24
27 8 0 14 4 14 9 0 4 -11 6 -24 4 -24 -5 -44 21 -25 32 5 4 12 -1 15 -9 10
-26 26 -6 20 25 -3 16 -1 29 4 29 6 0 9 -3 9 -7 -4 -22 3 -23 19 -3 11 14 31
23 52 25 50 4 50 4 50 14 0 5 -9 7 -20 4 -25 -7 -27 12 -2 22 16 6 16 7 -1 20
-15 11 -15 13 -3 18 9 4 22 -1 31 -9 13 -14 15 -14 15 0 0 9 4 16 9 16 5 0 7
-10 5 -22 -4 -16 -1 -14 9 7 8 17 13 33 11 36 -2 4 5 9 16 12 11 3 24 15 28
27 4 12 12 22 17 23 6 1 9 5 8 10 -2 4 2 7 7 7 6 0 10 5 10 10 0 6 -10 10 -22
10 -21 0 -21 0 -2 14 10 8 21 10 22 5 2 -5 8 -6 13 -3 6 3 5 12 -3 21 -7 8
-17 25 -23 37 -7 11 -17 20 -23 19 -7 -2 -12 3 -12 11 0 21 -19 30 -34 16 -11
-8 -15 -8 -18 0 -2 7 -36 -15 -75 -48z m111 -20 c-4 -18 -11 -32 -16 -32 -5 0
-6 5 -3 10 4 6 4 18 0 28 -5 14 -7 14 -15 2 -8 -13 -10 -12 -10 2 0 10 9 18
23 20 29 5 28 6 21 -30z m42 -9 c-10 -10 -19 5 -10 18 6 11 8 11 12 0 2 -7 1
-15 -2 -18z m-29 -15 c-3 -8 -6 -5 -6 6 -1 11 2 17 5 13 3 -3 4 -12 1 -19z
m-7 -93 c0 -8 -2 -15 -4 -15 -2 0 -6 7 -10 15 -3 8 -1 15 4 15 6 0 10 -7 10
-15z m-160 -119 c0 -3 -4 -8 -10 -11 -5 -3 -10 -1 -10 4 0 6 5 11 10 11 6 0
10 -2 10 -4z m-163 -168 c-3 -8 -6 -5 -6 6 -1 11 2 17 5 13 3 -3 4 -12 1 -19z
m-139 -28 c-7 -11 -15 -15 -17 -9 -2 6 3 15 10 20 20 12 21 11 7 -11z m-8 -62
c0 -12 -26 -38 -38 -38 -6 0 -12 -5 -14 -12 -2 -6 -10 -8 -17 -4 -16 10 7 39
26 32 8 -3 13 2 13 13 0 10 7 18 15 18 8 0 15 -4 15 -9z m-70 -18 c0 -5 -2
-10 -4 -10 -3 0 -8 5 -11 10 -3 6 -1 10 4 10 6 0 11 -4 11 -10z m-80 -70 c0
-5 -5 -10 -11 -10 -5 0 -7 5 -4 10 3 6 8 10 11 10 2 0 4 -4 4 -10z m50 -55 c0
-8 -5 -15 -11 -15 -5 0 -7 5 -3 12 5 8 0 9 -14 6 -12 -4 -22 -2 -22 3 0 5 11
9 25 9 16 0 25 -6 25 -15z m-23 -47 c-3 -8 -6 -5 -6 6 -1 11 2 17 5 13 3 -3 4
-12 1 -19z m-113 -13 c-6 -16 -24 -21 -24 -7 0 11 11 22 21 22 5 0 6 -7 3 -15z
m36 -69 c0 -16 -18 -31 -27 -22 -8 8 5 36 17 36 5 0 10 -6 10 -14z m-90 -46
c13 -9 13 -11 0 -19 -17 -12 -30 -5 -30 15 0 16 9 18 30 4z m38 -9 c-7 -9 -13
-18 -15 -20 -1 -2 -1 5 0 16 0 11 7 20 14 20 10 0 10 -4 1 -16z m12 -45 c0
-11 -19 -15 -25 -6 -3 5 1 10 9 10 9 0 16 -2 16 -4z m-40 -42 c0 -8 -4 -12
-10 -9 -5 3 -10 10 -10 16 0 5 5 9 10 9 6 0 10 -7 10 -16z m-20 -54 c0 -5 -2
-10 -4 -10 -3 0 -8 5 -11 10 -3 6 -1 10 4 10 6 0 11 -4 11 -10z m-580 -240 c0
-5 -2 -10 -4 -10 -3 0 -8 5 -11 10 -3 6 -1 10 4 10 6 0 11 -4 11 -10z m-937
-685 c-3 -9 -8 -14 -10 -11 -3 3 -2 9 2 15 9 16 15 13 8 -4z m-863 -545 c0 -4
-6 -10 -14 -13 -10 -4 -14 0 -13 12 1 18 27 18 27 1z m-615 -380 c3 -5 1 -10
-4 -10 -6 0 -11 5 -11 10 0 6 2 10 4 10 3 0 8 -4 11 -10z m-380 -220 c3 -5 1
-10 -4 -10 -6 0 -11 5 -11 10 0 6 2 10 4 10 3 0 8 -4 11 -10z"/>
<path d="M18545 8709 c-4 -6 -5 -12 -2 -15 2 -3 7 2 10 11 7 17 1 20 -8 4z"/>
<path d="M18628 8683 c7 -3 16 -2 19 1 4 3 -2 6 -13 5 -11 0 -14 -3 -6 -6z"/>
<path d="M18287 8535 c-4 -8 -3 -16 1 -19 4 -3 9 4 9 15 2 23 -3 25 -10 4z"/>
<path d="M18440 8534 c0 -8 5 -12 10 -9 6 3 10 10 10 16 0 5 -4 9 -10 9 -5 0
-10 -7 -10 -16z"/>
<path d="M18336 8525 c4 -8 7 -15 9 -15 2 0 5 7 9 15 3 9 0 15 -9 15 -9 0 -12
-6 -9 -15z"/>
<path d="M18280 8419 c0 -5 5 -7 10 -4 6 3 10 8 10 11 0 2 -4 4 -10 4 -5 0
-10 -5 -10 -11z"/>
<path d="M18160 8350 c0 -5 5 -10 11 -10 5 0 7 5 4 10 -3 6 -8 10 -11 10 -2 0
-4 -4 -4 -10z"/>
<path d="M17150 7589 c0 -5 5 -7 10 -4 6 3 10 8 10 11 0 2 -4 4 -10 4 -5 0
-10 -5 -10 -11z"/>
<path d="M17123 7570 c1 -11 7 -20 14 -20 17 0 16 8 -1 26 -13 12 -15 12 -13
-6z"/>
<path d="M17842 7553 c5 -25 28 -28 28 -4 0 12 -6 21 -16 21 -9 0 -14 -7 -12
-17z"/>
<path d="M17050 7480 c-9 -6 -10 -10 -3 -10 6 0 15 5 18 10 8 12 4 12 -15 0z"/>
<path d="M17838 7463 c-5 -81 -4 -93 6 -90 6 2 10 12 10 20 -1 13 4 15 22 11
14 -4 24 -2 24 5 0 6 -7 8 -15 5 -17 -7 -21 22 -5 46 6 9 5 17 -3 22 -23 15
-37 8 -39 -19z"/>
<path d="M17830 7310 c-6 -24 -10 -63 -8 -87 2 -24 0 -43 -3 -43 -8 0 -33
-180 -25 -187 3 -3 1 -14 -5 -24 -5 -10 -18 -62 -29 -116 -127 -618 -482
-1199 -972 -1593 -385 -311 -883 -514 -1433 -584 -385 -49 -661 -55 -2555 -58
-938 -1 -1749 -4 -1802 -6 -92 -3 -97 -4 -86 -22 6 -10 19 -17 29 -15 10 2 16
-3 15 -13 -1 -11 8 -18 23 -20 15 -2 21 0 16 7 -3 6 -11 9 -16 6 -5 -4 -9 -2
-9 4 0 5 4 12 9 15 12 8 24 -23 22 -56 -2 -18 2 -28 11 -28 8 0 9 -3 3 -8 -5
-4 -11 -21 -13 -39 -2 -23 1 -33 15 -36 16 -4 16 -5 1 -6 -25 -2 -11 -31 14
-31 12 0 27 8 34 18 12 16 13 15 14 -5 0 -13 -8 -24 -20 -28 -11 -4 -20 -15
-20 -27 0 -19 1 -19 19 3 l18 23 12 -22 c7 -12 8 -22 2 -22 -5 0 -11 6 -14 13
-2 6 -8 8 -13 4 -5 -5 -1 -13 9 -18 9 -6 15 -14 12 -20 -4 -5 -2 -9 4 -9 5 0
12 14 16 30 6 26 9 29 22 18 10 -8 11 -14 4 -16 -6 -2 -11 -13 -11 -24 0 -20
1 -21 20 -3 20 18 20 17 20 -21 0 -38 0 -38 16 -16 14 21 41 22 29 1 -4 -5 1
-9 10 -9 11 0 15 6 10 19 -4 12 0 21 11 25 25 10 43 -12 39 -45 -3 -24 -1 -28
10 -19 10 8 17 7 29 -5 9 -9 20 -14 25 -11 5 3 11 -4 14 -15 4 -14 12 -20 27
-17 28 4 27 22 -2 28 -21 6 -22 6 -4 13 12 5 22 3 28 -5 4 -7 8 -10 8 -5 0 4
13 1 29 -7 16 -9 32 -12 36 -8 5 4 5 2 2 -4 -5 -8 10 -12 50 -13 43 0 61 -5
72 -18 11 -15 13 -15 8 -2 -3 9 0 22 6 28 16 16 27 14 21 -4 -4 -9 0 -15 10
-15 9 0 16 -5 16 -11 0 -6 8 -18 17 -27 16 -16 16 -16 10 1 -9 24 2 44 14 26
5 -9 30 -14 69 -15 51 -1 59 1 49 12 -10 12 -9 13 5 8 11 -4 15 -13 11 -25 -4
-13 -1 -19 9 -19 9 0 16 4 16 9 0 6 9 9 20 8 11 -1 19 -6 17 -12 -2 -12 4 -15
29 -15 10 0 14 6 10 15 -3 9 0 15 10 15 12 0 15 -6 10 -26 l-7 -25 22 20 c17
15 26 18 36 10 9 -9 14 -7 19 5 6 14 10 14 42 -6 19 -12 32 -16 28 -10 -4 7
-1 12 8 12 8 0 18 -5 21 -10 5 -8 11 -8 20 0 12 10 110 8 121 -3 4 -4 15 -2
25 3 13 7 22 6 33 -6 15 -14 16 -14 16 1 0 11 6 15 19 10 12 -4 21 0 25 12 7
17 8 17 17 0 6 -9 8 -21 5 -26 -3 -5 12 -13 34 -19 22 -5 42 -6 45 -2 3 5 0
10 -7 12 -6 2 -8 10 -4 16 4 7 16 10 27 7 10 -4 19 -2 19 4 0 6 7 8 16 4 15
-6 15 -8 -2 -20 -16 -12 -15 -13 12 -13 18 0 35 -8 44 -20 10 -13 21 -18 34
-14 14 5 18 2 13 -8 -4 -12 3 -15 41 -12 25 2 49 9 54 16 6 10 10 10 18 -2 7
-12 11 -8 16 18 5 22 9 29 15 21 4 -7 5 -17 2 -22 -3 -5 4 -4 16 2 11 7 21 16
21 21 0 24 18 7 24 -22 4 -18 10 -28 14 -23 4 6 25 11 47 13 22 2 42 6 45 10
3 4 14 8 25 10 20 2 20 2 1 -13 -11 -8 -17 -18 -13 -22 4 -3 15 2 26 11 20 18
38 7 25 -16 -5 -10 -4 -10 6 -1 7 6 23 8 39 4 32 -9 79 -7 106 4 18 7 19 7 3
-6 -12 -10 -15 -19 -9 -28 7 -12 13 -12 24 -3 7 7 17 9 20 5 4 -3 14 0 22 7
13 11 19 10 36 -8 22 -24 34 -27 44 -12 4 6 11 8 16 5 16 -10 10 -23 -13 -28
-13 -3 -8 -4 11 -4 20 1 36 -4 39 -11 3 -9 9 -7 19 8 12 18 22 20 65 16 28 -3
54 -8 57 -13 10 -13 31 -14 31 -1 0 9 3 9 11 1 14 -14 3 -33 -19 -34 -14 0
-13 -2 3 -8 11 -5 23 -4 26 1 4 7 14 6 27 -1 16 -8 24 -8 36 4 19 20 22 19 31
-7 7 -22 7 -22 12 -3 3 11 10 25 15 30 8 7 9 5 5 -7 -6 -18 18 -33 28 -17 4 5
12 3 21 -5 18 -19 18 -30 -1 -22 -8 3 -15 1 -15 -3 0 -5 7 -12 15 -15 11 -4
19 3 26 21 5 14 12 23 16 19 3 -3 12 -1 20 5 10 9 13 8 13 -4 0 -8 7 -18 16
-21 8 -3 12 -2 9 4 -3 6 1 7 9 4 9 -3 16 -13 16 -20 0 -28 76 -4 85 27 4 10
10 19 15 19 14 0 21 -33 8 -42 -10 -6 -8 -8 5 -8 9 0 17 7 17 15 0 8 5 15 10
15 6 0 10 -7 8 -17 -3 -14 7 -16 70 -16 46 0 77 4 81 12 5 7 12 3 21 -14 7
-14 17 -25 22 -25 12 0 10 24 -4 38 -9 9 -9 12 0 12 7 0 12 -5 12 -11 0 -6 6
-9 14 -6 8 3 20 -1 26 -9 7 -8 18 -14 24 -13 7 0 6 2 -1 6 -7 2 -13 9 -13 14
0 10 32 0 43 -15 6 -7 7 -4 3 7 -3 9 -2 17 2 18 4 0 16 2 26 4 10 2 25 -3 33
-11 25 -24 119 -14 109 12 -7 19 8 18 24 -1 16 -19 40 -19 40 0 0 8 5 15 11
15 5 0 7 -5 3 -12 -5 -8 0 -9 17 -3 13 4 34 8 47 9 12 0 22 5 22 10 0 4 7 5
16 2 14 -5 15 -4 4 9 -7 9 -10 19 -6 23 4 4 15 -2 24 -13 10 -11 24 -19 32
-19 8 1 21 2 28 3 7 0 10 6 6 13 -5 8 0 9 17 4 46 -13 54 -13 61 3 6 15 7 15
7 0 1 -12 8 -15 26 -11 14 2 22 8 20 13 -3 4 20 8 52 9 96 2 104 3 99 17 -8
19 11 16 23 -4 9 -16 10 -16 11 5 0 12 5 22 11 22 5 0 7 5 4 10 -3 6 -2 10 4
10 5 0 11 -7 13 -17 2 -10 13 -17 29 -17 18 -1 25 3 22 11 -3 9 5 13 23 14 16
0 38 2 49 4 10 2 26 -2 34 -8 11 -9 13 -9 8 0 -4 7 5 17 23 26 18 9 30 11 30
5 0 -6 6 -6 15 2 8 7 15 9 15 5 0 -4 6 -2 13 4 8 6 17 7 22 3 4 -4 4 3 0 16
-7 23 11 28 28 7 6 -6 10 -6 14 3 6 16 30 16 35 0 4 -10 9 -8 21 3 9 9 15 18
14 20 -1 3 3 -1 8 -7 12 -13 38 -7 29 7 -5 9 16 13 44 10 6 -1 12 3 12 8 0 11
33 24 67 26 12 1 30 8 39 16 9 8 26 13 36 11 11 -2 26 2 35 9 22 19 109 50
176 64 15 3 27 11 27 19 0 9 9 12 28 9 23 -3 24 -2 7 6 -19 8 -18 9 7 16 16 4
25 11 22 16 -4 8 26 14 49 10 5 -1 6 3 3 8 -4 5 -2 12 3 15 5 4 13 1 16 -4 5
-8 12 -7 23 3 20 17 78 38 85 30 3 -3 11 4 18 15 7 11 18 18 25 15 7 -2 18 4
25 15 8 12 19 17 35 14 15 -3 26 1 30 11 3 9 12 13 19 10 10 -3 13 1 10 16 -2
12 0 19 6 16 5 -4 9 2 9 12 0 15 2 16 10 3 7 -11 10 -12 10 -2 0 10 8 12 28 7
20 -4 33 -1 42 9 7 9 16 13 21 10 5 -3 9 0 9 5 0 6 -4 11 -10 11 -25 0 -7 15
21 17 19 2 38 12 50 27 11 14 26 25 32 23 7 -1 11 4 9 11 -1 6 5 12 13 12 8 0
15 5 15 10 0 6 16 18 35 27 19 9 32 20 29 25 -3 4 2 8 10 8 9 0 16 5 16 10 0
6 3 9 8 9 23 -4 34 3 28 17 -4 12 -2 15 9 10 9 -3 15 0 15 9 0 8 8 12 20 10
14 -3 20 2 20 14 0 10 7 24 15 31 8 7 12 17 9 22 -4 6 1 8 12 4 11 -3 26 -1
34 4 13 9 13 10 0 10 -8 0 12 25 45 56 33 31 59 62 57 70 -1 7 11 15 27 19 16
3 32 13 35 22 4 9 14 13 26 10 11 -3 18 -1 14 4 -3 5 2 9 10 9 9 0 16 7 16 15
0 9 8 18 18 22 25 9 54 42 47 53 -11 18 5 31 25 20 13 -7 19 -6 24 5 3 8 1 17
-4 20 -6 4 -5 12 3 19 6 8 15 12 19 10 11 -7 38 8 32 17 -3 5 2 6 11 3 11 -5
16 -2 15 7 -4 27 0 39 13 39 19 0 42 51 27 60 -11 7 -3 40 10 40 5 0 10 -6 13
-12 3 -8 7 -6 12 7 19 53 43 95 48 83 3 -10 9 -8 23 6 16 16 16 18 2 13 -10
-4 -18 1 -21 14 -4 14 1 21 19 25 13 3 24 10 24 16 0 5 5 6 10 3 6 -4 10 -3 9
2 -4 21 2 33 17 33 14 0 14 3 4 15 -11 13 -10 18 6 30 19 14 24 16 44 19 6 0
15 7 19 15 5 7 14 10 20 7 16 -10 13 0 -5 18 -14 15 -14 17 0 22 11 4 16 19
16 49 0 34 4 45 18 49 18 6 22 17 23 63 1 13 5 21 9 18 11 -7 3 44 -10 60 -8
9 -8 14 0 17 6 2 12 18 12 36 1 22 4 29 10 20 6 -10 10 -10 18 2 14 22 12 30
-5 24 -8 -4 -15 -2 -16 2 -6 61 -5 64 19 64 13 0 21 4 17 10 -3 5 -12 7 -19 4
-8 -3 -17 -1 -21 5 -6 10 15 16 39 12 5 -1 3 5 -4 14 -18 21 -4 32 22 16 20
-12 21 -11 15 21 -3 18 -3 28 -1 21 6 -13 34 -6 34 9 0 5 -4 7 -9 4 -5 -3 -11
3 -14 13 -3 12 1 22 9 25 8 3 14 19 14 36 0 17 4 29 9 25 6 -3 15 3 20 14 15
27 14 41 -3 35 -8 -3 -23 -1 -33 5 -14 8 -15 11 -3 12 8 1 18 1 23 0 10 -1 9
17 -2 23 -5 3 -7 15 -4 26 4 16 9 18 19 10 9 -9 15 -6 23 9 13 23 14 32 4 28
-5 -1 -8 3 -8 8 0 6 6 9 15 7 12 -2 11 0 -2 11 -19 15 -24 47 -8 47 6 0 10 11
10 24 0 14 5 28 10 31 15 10 12 25 -5 19 -10 -4 -13 1 -12 23 2 21 -2 28 -15
27 -19 -2 -24 11 -9 20 15 9 32 66 19 63 -6 -1 -13 4 -16 12 -3 9 0 12 10 9
10 -4 20 5 30 28 8 18 12 31 7 29 -4 -3 -10 4 -14 15 -4 11 -11 18 -16 15 -5
-4 -9 -2 -9 3 0 4 14 15 32 23 17 8 33 22 34 32 3 20 -12 23 -19 5 -3 -7 -6
-3 -6 10 -1 12 4 22 9 22 6 0 10 9 10 19 0 14 -5 18 -19 14 -31 -8 -34 26 -7
68 22 33 28 72 17 118 -1 3 -8 -4 -16 -15 -14 -18 -14 -17 -4 8 9 20 9 31 1
41 -8 10 -6 16 8 25 15 9 17 17 11 40 -5 17 -5 36 1 46 7 13 6 22 -5 33 -14
14 -17 11 -27 -27z m20 -354 c0 -3 -4 -8 -10 -11 -5 -3 -10 -1 -10 4 0 6 5 11
10 11 6 0 10 -2 10 -4z m-60 -271 c-7 -9 -15 -13 -18 -10 -3 2 1 11 8 20 7 9
15 13 18 10 3 -2 -1 -11 -8 -20z m-6740 -2169 c0 -8 -5 -18 -12 -22 -7 -4 -8
-3 -4 4 4 7 2 12 -4 12 -6 0 -8 5 -5 10 9 15 25 12 25 -4z m99 -148 c-12 -22
-11 -22 -30 0 -15 18 -15 19 11 18 23 -1 26 -4 19 -18z m621 -208 c6 -11 8
-20 6 -20 -3 0 -10 9 -16 20 -6 11 -8 20 -6 20 3 0 10 -9 16 -20z m914 -99 c3
-5 -3 -11 -13 -14 -14 -3 -18 -1 -14 9 6 16 19 18 27 5z m2661 -1 c3 -5 -1
-10 -10 -10 -9 0 -13 5 -10 10 3 6 8 10 10 10 2 0 7 -4 10 -10z m-1625 -94 c0
-2 -7 -6 -15 -10 -8 -3 -15 -1 -15 4 0 6 7 10 15 10 8 0 15 -2 15 -4z m360
-60 c0 -3 -4 -8 -10 -11 -5 -3 -10 -1 -10 4 0 6 5 11 10 11 6 0 10 -2 10 -4z"/>
<path d="M17883 7085 c-3 -9 -3 -18 -1 -21 3 -3 8 4 11 16 6 23 -1 27 -10 5z"/>
<path d="M16363 7048 c-2 -16 1 -17 13 -8 17 15 17 17 1 23 -8 3 -14 -3 -14
-15z"/>
<path d="M16320 7005 c0 -8 2 -15 4 -15 2 0 6 7 10 15 3 8 1 15 -4 15 -6 0
-10 -7 -10 -15z"/>
<path d="M17853 7005 c-15 -17 -16 -25 -3 -25 5 0 14 9 20 20 12 23 1 26 -17
5z"/>
<path d="M16104 6836 c-10 -8 -16 -17 -13 -20 3 -3 14 3 24 14 21 23 17 26
-11 6z"/>
<path d="M15680 6611 c0 -25 6 -27 13 -6 4 8 2 17 -3 20 -6 4 -10 -3 -10 -14z"/>
<path d="M15640 6590 c0 -5 5 -10 11 -10 5 0 7 5 4 10 -3 6 -8 10 -11 10 -2 0
-4 -4 -4 -10z"/>
<path d="M15615 6570 c3 -5 8 -10 11 -10 2 0 4 5 4 10 0 6 -5 10 -11 10 -5 0
-7 -4 -4 -10z"/>
<path d="M15417 6410 c3 -11 9 -17 15 -14 5 3 4 12 -3 20 -16 19 -18 18 -12
-6z"/>
<path d="M15360 6361 c0 -10 26 -9 36 2 4 4 -2 7 -14 7 -12 0 -22 -4 -22 -9z"/>
<path d="M15140 6243 c0 -7 7 -13 15 -13 8 0 15 6 15 13 0 8 -7 14 -15 14 -8
0 -15 -6 -15 -14z"/>
<path d="M14856 6135 c-3 -8 -1 -15 4 -15 6 0 10 7 10 15 0 8 -2 15 -4 15 -2
0 -6 -7 -10 -15z"/>
<path d="M7930 6096 c0 -2 8 -10 18 -17 15 -13 16 -12 3 4 -13 16 -21 21 -21
13z"/>
<path d="M17680 6060 c0 -5 5 -10 11 -10 5 0 7 5 4 10 -3 6 -8 10 -11 10 -2 0
-4 -4 -4 -10z"/>
<path d="M14726 6042 c-3 -5 1 -9 9 -9 8 0 12 4 9 9 -3 4 -7 8 -9 8 -2 0 -6
-4 -9 -8z"/>
<path d="M17670 5953 c0 -5 5 -15 10 -23 8 -12 10 -11 10 8 0 12 -4 22 -10 22
-5 0 -10 -3 -10 -7z"/>
<path d="M14240 5773 c0 -6 -9 -9 -20 -6 -20 5 -28 -11 -11 -21 11 -7 48 21
38 30 -4 4 -7 3 -7 -3z"/>
<path d="M13826 5544 c-5 -14 -4 -15 9 -4 17 14 19 20 6 20 -5 0 -12 -7 -15
-16z"/>
<path d="M17400 5380 c-8 -5 -12 -12 -9 -15 4 -3 12 1 19 10 14 17 11 19 -10
5z"/>
<path d="M10888 4573 c7 -3 16 -2 19 1 4 3 -2 6 -13 5 -11 0 -14 -3 -6 -6z"/>
<path d="M10880 4540 c0 -5 5 -10 11 -10 5 0 7 5 4 10 -3 6 -8 10 -11 10 -2 0
-4 -4 -4 -10z"/>
<path d="M10925 4540 c-3 -5 1 -10 10 -10 9 0 13 5 10 10 -3 6 -8 10 -10 10
-2 0 -7 -4 -10 -10z"/>
<path d="M10966 4491 c-3 -5 1 -11 9 -15 15 -6 29 7 18 18 -9 9 -21 8 -27 -3z"/>
<path d="M10935 4450 c3 -5 11 -10 16 -10 6 0 7 5 4 10 -3 6 -11 10 -16 10 -6
0 -7 -4 -4 -10z"/>
<path d="M10970 4421 c0 -5 5 -13 10 -16 6 -3 10 -2 10 4 0 5 -4 13 -10 16 -5
3 -10 2 -10 -4z"/>
<path d="M11246 4271 c-4 -7 -5 -15 -2 -18 9 -9 19 4 14 18 -4 11 -6 11 -12 0z"/>
<path d="M11440 4170 c0 -5 5 -10 10 -10 6 0 10 5 10 10 0 6 -4 10 -10 10 -5
0 -10 -4 -10 -10z"/>
<path d="M11556 4152 c-3 -6 -1 -14 5 -17 15 -10 25 3 12 16 -7 7 -13 7 -17 1z"/>
<path d="M13230 3990 c0 -5 5 -10 10 -10 6 0 10 5 10 10 0 6 -4 10 -10 10 -5
0 -10 -4 -10 -10z"/>
<path d="M13448 3943 c7 -3 16 -2 19 1 4 3 -2 6 -13 5 -11 0 -14 -3 -6 -6z"/>
<path d="M13761 3894 c0 -11 3 -14 6 -6 3 7 2 16 -1 19 -3 4 -6 -2 -5 -13z"/>
</g>
</svg>
